<svg width="31" height="54" viewBox="0 0 31 54" fill="none" xmlns="http://www.w3.org/2000/svg">
<path d="M25.8333 0H5.16667C3.79638 0 2.48222 0.568927 1.51328 1.58162C0.544343 2.59432 0 3.96783 0 5.4V48.6C0 50.0322 0.544343 51.4057 1.51328 52.4184C2.48222 53.4311 3.79638 54 5.16667 54H25.8333C27.2036 54 28.5178 53.4311 29.4867 52.4184C30.4557 51.4057 31 50.0322 31 48.6V5.4C31 3.96783 30.4557 2.59432 29.4867 1.58162C28.5178 0.568927 27.2036 0 25.8333 0ZM18.0833 51.3H12.9167V48.6H18.0833V51.3ZM25.8333 45.9H5.16667V8.1H25.8333V45.9Z" fill="black"/>
</svg>
