<svg width="49" height="46" viewBox="0 0 49 46" fill="none" xmlns="http://www.w3.org/2000/svg">
<path d="M24.1667 0C10.8194 0 0 10.2598 0 22.9167C0 35.5735 10.8194 45.8333 24.1667 45.8333C37.5139 45.8333 48.3333 35.5735 48.3333 22.9167C48.3333 10.2598 37.5139 0 24.1667 0ZM24.1667 42.3958C21.4689 42.3957 18.7977 41.8917 16.3053 40.9125C13.813 39.9334 11.5485 38.4984 9.64101 36.6894C7.73354 34.8803 6.2205 32.7328 5.18827 30.3693C4.15604 28.0057 3.62484 25.4726 3.625 22.9144C3.62516 20.3562 4.15667 17.8231 5.1892 15.4597C6.22172 13.0963 7.73503 10.9489 9.64272 9.14005C11.5504 7.33124 13.8151 5.89646 16.3076 4.91762C18.8 3.93878 21.4714 3.43506 24.1691 3.43521C29.6174 3.43551 34.8424 5.48819 38.6947 9.14167C42.547 12.7952 44.7111 17.7502 44.7108 22.9167C44.7104 28.0832 42.5458 33.0379 38.693 36.691C34.8403 40.344 29.615 42.3961 24.1667 42.3958ZM24.1667 24.0625C16.8248 24.0625 10.875 28.0225 10.875 32.0833C10.875 36.1442 16.8248 40.1042 24.1667 40.1042C31.5085 40.1042 37.4583 36.1442 37.4583 32.0833C37.4583 28.0225 31.5085 24.0625 24.1667 24.0625ZM24.1667 22.9167C26.0895 22.9167 27.9336 22.1923 29.2932 20.903C30.6528 19.6137 31.4167 17.865 31.4167 16.0417C31.4167 14.2183 30.6528 12.4696 29.2932 11.1803C27.9336 9.891 26.0895 9.16667 24.1667 9.16667C22.2438 9.16667 20.3998 9.891 19.0401 11.1803C17.6805 12.4696 16.9167 14.2183 16.9167 16.0417C16.9167 17.865 17.6805 19.6137 19.0401 20.903C20.3998 22.1923 22.2438 22.9167 24.1667 22.9167V22.9167Z" fill="black"/>
</svg>
