<svg width="40" height="34" viewBox="0 0 40 34" fill="none" xmlns="http://www.w3.org/2000/svg">
<path d="M20 0C14.6957 0 9.60859 1.79107 5.85786 4.97918C2.10714 8.1673 0 12.4913 0 17C0 21.5087 2.10714 25.8327 5.85786 29.0208C9.60859 32.2089 14.6957 34 20 34V30.6C16.8355 30.6 13.7421 29.8024 11.1109 28.308C8.47968 26.8136 6.42893 24.6896 5.21792 22.2045C4.00692 19.7194 3.69007 16.9849 4.30743 14.3468C4.9248 11.7086 6.44865 9.28534 8.68629 7.38335C10.9239 5.48135 13.7748 4.18608 16.8785 3.66132C19.9822 3.13656 23.1993 3.40589 26.1229 4.43524C29.0465 5.46459 31.5454 7.20774 33.3035 9.44424C35.0616 11.6808 36 14.3102 36 17V17.85C36 18.5263 35.6839 19.1749 35.1213 19.6531C34.5587 20.1313 33.7956 20.4 33 20.4C32.2043 20.4 31.4413 20.1313 30.8787 19.6531C30.316 19.1749 30 18.5263 30 17.85V8.5H26V10.2C24.4177 9.19132 22.5191 8.6041 20.5442 8.5126C18.5694 8.4211 16.6069 8.82944 14.9051 9.68597C13.2032 10.5425 11.8384 11.8088 10.9832 13.3246C10.128 14.8405 9.82079 16.5378 10.1005 18.2021C10.3802 19.8663 11.2342 21.4227 12.5546 22.6744C13.8749 23.9261 15.6022 24.8168 17.5182 25.2341C19.4341 25.6513 21.4526 25.5762 23.3183 25.0184C25.1841 24.4605 26.8133 23.4449 28 22.1C28.9744 22.9454 30.2233 23.5245 31.587 23.7634C32.9507 24.0023 34.3672 23.8901 35.6555 23.4411C36.9438 22.9922 38.0452 22.2269 38.8191 21.243C39.593 20.2592 40.0042 19.1015 40 17.918V17C40 14.7675 39.4827 12.5569 38.4776 10.4944C37.4725 8.43185 35.9993 6.55778 34.1421 4.97918C32.2849 3.40059 30.0802 2.14838 27.6536 1.29405C25.2271 0.439718 22.6264 0 20 0ZM20 22.1C18.8133 22.1 17.6533 21.8009 16.6666 21.2405C15.6799 20.6801 14.9108 19.8836 14.4567 18.9517C14.0026 18.0198 13.8838 16.9943 14.1153 16.005C14.3468 15.0157 14.9182 14.107 15.7573 13.3938C16.5965 12.6805 17.6656 12.1948 18.8294 11.998C19.9933 11.8012 21.1997 11.9022 22.2961 12.2882C23.3924 12.6742 24.3295 13.3279 24.9888 14.1666C25.6481 15.0053 26 15.9913 26 17C26 18.3526 25.3678 19.6498 24.2426 20.6062C23.1174 21.5627 21.5913 22.1 20 22.1Z" fill="black"/>
</svg>
