<svg width="40" height="38" viewBox="0 0 40 38" fill="none" xmlns="http://www.w3.org/2000/svg">
<path d="M20 0C8.954 0 0 8.5063 0 19C0 29.4937 8.954 38 20 38C31.046 38 40 29.4937 40 19C40 8.5063 31.046 0 20 0ZM33.836 11.4H27.406C27.1069 9.26215 26.73 7.13478 26.276 5.0217C29.4517 6.32118 32.1026 8.55766 33.836 11.4ZM22.028 3.9368C22.164 4.6056 22.802 7.809 23.318 11.4H16.678C17.198 7.809 17.834 4.6056 17.97 3.9368C18.64 3.857 19.312 3.8 20 3.8C20.688 3.8 21.36 3.857 22.028 3.9368ZM24 19C24 20.1362 23.914 21.4434 23.78 22.8H16.22C16.086 21.4434 16 20.1362 16 19C16 17.8638 16.086 16.5566 16.22 15.2H23.78C23.914 16.5566 24 17.8638 24 19ZM13.724 5.0217C13.27 7.13478 12.8931 9.26215 12.594 11.4H6.164C7.89742 8.55766 10.5483 6.32118 13.724 5.0217ZM4.524 15.2H12.168C12.068 16.4692 12 17.7536 12 19C12 20.2464 12.066 21.5308 12.17 22.8H4.526C4.194 21.584 4 20.3148 4 19C4 17.6852 4.194 16.416 4.524 15.2ZM6.164 26.6H12.594C12.97 29.3056 13.434 31.635 13.724 32.9783C10.5483 31.6788 7.89742 29.4423 6.164 26.6ZM17.972 34.0632C17.4746 31.5864 17.0445 29.0978 16.682 26.6H23.322C22.9563 29.0975 22.5255 31.586 22.03 34.0632C21.364 34.1449 20.69 34.2 20.002 34.2C19.314 34.2 18.642 34.143 17.974 34.0632H17.972ZM26.276 32.9802C26.7298 30.8664 27.1067 28.7384 27.406 26.6H33.836C32.1026 29.4423 29.4517 31.6807 26.276 32.9802ZM35.476 22.8H27.832C27.932 21.5308 28 20.2464 28 19C28 17.7536 27.934 16.4692 27.83 15.2H35.47C35.804 16.416 36 17.6852 36 19C36 20.3148 35.806 21.584 35.474 22.8H35.476Z" fill="black"/>
</svg>
